<svg width="100" height="77" viewBox="0 0 100 77" fill="none" xmlns="http://www.w3.org/2000/svg">
<rect width="99.1039" height="13.6268" fill="#004785"/>
<rect y="62.6832" width="99.1039" height="13.6268" fill="#004785"/>
<path d="M1.98585 19.4096H6.83987L10.9575 29.4503H11.1475L15.2651 19.4096H20.1192V35.6267H16.3024V25.6652H16.1678L12.2719 35.5237H9.83306L5.93717 25.6098H5.80255V35.6267H1.98585V19.4096ZM34.8797 35.6267H30.6671L36.1388 19.4096H41.3571L46.8287 35.6267H42.6161L38.8073 23.4956H38.6806L34.8797 35.6267ZM34.3175 29.2444H43.1229V32.2217H34.3175V29.2444ZM67.1936 19.4096H71.1053V29.8699C71.1053 31.0788 70.8176 32.132 70.2422 33.0294C69.6668 33.9216 68.8644 34.6131 67.835 35.1041C66.8056 35.5897 65.6099 35.8326 64.2479 35.8326C62.8701 35.8326 61.6665 35.5897 60.6371 35.1041C59.6077 34.6131 58.8079 33.9216 58.2378 33.0294C57.6677 32.132 57.3826 31.0788 57.3826 29.8699V19.4096H61.3023V29.5295C61.3023 30.089 61.4237 30.5879 61.6665 31.026C61.9146 31.4642 62.2604 31.8073 62.7038 32.0554C63.1473 32.3036 63.662 32.4276 64.2479 32.4276C64.8339 32.4276 65.346 32.3036 65.7841 32.0554C66.2276 31.8073 66.5733 31.4642 66.8214 31.026C67.0696 30.5879 67.1936 30.089 67.1936 29.5295V19.4096ZM85.8778 35.6267H81.6652L87.1368 19.4096H92.3551L97.8268 35.6267H93.6141L89.8054 23.4956H89.6787L85.8778 35.6267ZM85.3156 29.2444H94.1209V32.2217H85.3156V29.2444ZM88.4117 17.8655L90.0112 14.2943H93.4399L91.0486 17.8655H88.4117Z" fill="#001E38"/>
<path d="M12.4932 47.7348C12.4298 47.096 12.158 46.5998 11.6776 46.2461C11.1972 45.8924 10.5452 45.7156 9.72172 45.7156C9.16215 45.7156 8.68968 45.7948 8.30431 45.9531C7.91895 46.1062 7.62333 46.32 7.41744 46.5945C7.21684 46.869 7.11654 47.1805 7.11654 47.5289C7.10599 47.8193 7.16669 48.0726 7.29867 48.2891C7.43592 48.5055 7.62333 48.6929 7.86088 48.8513C8.09843 49.0044 8.37294 49.139 8.6844 49.2551C8.99586 49.366 9.32844 49.461 9.68213 49.5402L11.1391 49.8886C11.8465 50.047 12.4958 50.2581 13.0871 50.5221C13.6783 50.786 14.1904 51.1107 14.6233 51.4961C15.0561 51.8814 15.3913 52.3354 15.6289 52.858C15.8717 53.3807 15.9958 53.9798 16.0011 54.6555C15.9958 55.648 15.7424 56.5085 15.2409 57.237C14.7447 57.9602 14.0267 58.5224 13.0871 58.9236C12.1527 59.3195 11.0256 59.5175 9.70588 59.5175C8.3967 59.5175 7.25644 59.3169 6.2851 58.9157C5.31905 58.5145 4.56415 57.9206 4.02042 57.134C3.48196 56.3422 3.19954 55.3629 3.17314 54.1963H6.49098C6.52794 54.74 6.68367 55.194 6.95817 55.5582C7.23796 55.9172 7.61013 56.1891 8.07468 56.3738C8.54451 56.5533 9.07505 56.6431 9.66629 56.6431C10.247 56.6431 10.7511 56.5586 11.1787 56.3897C11.6116 56.2208 11.9468 55.9858 12.1844 55.6849C12.4219 55.384 12.5407 55.0383 12.5407 54.6476C12.5407 54.2834 12.4325 53.9772 12.216 53.7291C12.0049 53.481 11.6934 53.2698 11.2817 53.0956C10.8752 52.9214 10.3763 52.763 9.78507 52.6205L8.01925 52.1771C6.65199 51.8445 5.57244 51.3245 4.78059 50.6171C3.98875 49.9097 3.59546 48.9569 3.60074 47.7585C3.59546 46.7767 3.85677 45.9188 4.38467 45.185C4.91785 44.4513 5.64899 43.8785 6.57809 43.4667C7.50719 43.055 8.56298 42.8491 9.74548 42.8491C10.9491 42.8491 11.9996 43.055 12.897 43.4667C13.7997 43.8785 14.5018 44.4513 15.0033 45.185C15.5048 45.9188 15.7635 46.7687 15.7794 47.7348H12.4932ZM25.638 59.2878H21.9638L27.5622 43.0708H31.9807L37.5712 59.2878H33.897L29.8348 46.7767H29.7081L25.638 59.2878ZM25.4084 52.9135H34.087V55.5899H25.4084V52.9135ZM44.4287 59.2878V43.0708H47.8574V56.4609H54.8098V59.2878H44.4287ZM65.1951 59.2878H61.5209L67.1193 43.0708H71.5378L77.1282 59.2878H73.454L69.3919 46.7767H69.2652L65.1951 59.2878ZM64.9654 52.9135H73.6441V55.5899H64.9654V52.9135ZM92.413 47.7348C92.3497 47.096 92.0778 46.5998 91.5974 46.2461C91.117 45.8924 90.4651 45.7156 89.6415 45.7156C89.082 45.7156 88.6095 45.7948 88.2241 45.9531C87.8388 46.1062 87.5431 46.32 87.3373 46.5945C87.1367 46.869 87.0364 47.1805 87.0364 47.5289C87.0258 47.8193 87.0865 48.0726 87.2185 48.2891C87.3557 48.5055 87.5431 48.6929 87.7807 48.8513C88.0182 49.0044 88.2928 49.139 88.6042 49.2551C88.9157 49.366 89.2482 49.461 89.6019 49.5402L91.0589 49.8886C91.7663 50.047 92.4156 50.2581 93.0069 50.5221C93.5981 50.786 94.1102 51.1107 94.5431 51.4961C94.9759 51.8814 95.3112 52.3354 95.5487 52.858C95.7915 53.3807 95.9156 53.9798 95.9209 54.6555C95.9156 55.648 95.6622 56.5085 95.1607 57.237C94.6645 57.9602 93.9465 58.5224 93.0069 58.9236C92.0725 59.3195 90.9454 59.5175 89.6257 59.5175C88.3165 59.5175 87.1762 59.3169 86.2049 58.9157C85.2389 58.5145 84.484 57.9206 83.9402 57.134C83.4018 56.3422 83.1193 55.3629 83.093 54.1963H86.4108C86.4477 54.74 86.6035 55.194 86.878 55.5582C87.1578 55.9172 87.5299 56.1891 87.9945 56.3738C88.4643 56.5533 88.9949 56.6431 89.5861 56.6431C90.1668 56.6431 90.6709 56.5586 91.0985 56.3897C91.5314 56.2208 91.8666 55.9858 92.1042 55.6849C92.3417 55.384 92.4605 55.0383 92.4605 54.6476C92.4605 54.2834 92.3523 53.9772 92.1359 53.7291C91.9247 53.481 91.6132 53.2698 91.2015 53.0956C90.795 52.9214 90.2961 52.763 89.7049 52.6205L87.9391 52.1771C86.5718 51.8445 85.4923 51.3245 84.7004 50.6171C83.9086 49.9097 83.5153 48.9569 83.5206 47.7585C83.5153 46.7767 83.7766 45.9188 84.3045 45.185C84.8377 44.4513 85.5688 43.8785 86.4979 43.4667C87.427 43.055 88.4828 42.8491 89.6653 42.8491C90.8689 42.8491 91.9194 43.055 92.8168 43.4667C93.7195 43.8785 94.4217 44.4513 94.9232 45.185C95.4247 45.9188 95.6833 46.7687 95.6992 47.7348H92.413Z" fill="#001E38"/>
</svg>
